# xmcd
#
# Track frame offsets: 
#        150
#        13970
#        27805
#        39900
#        53055
#        65640
#        76240
#        88450
#        101550
#        116407
#        132220
#        146337
#        161392
#        179257
#        194660
#        208227
#        223167
#        238440
#        257237
#        274567
#
# Disc length: 3815 seconds
#
# Revision: 3
# Processed by: cddbd v1.5.2PL0 Copyright (c) Steve Scherf et al.
# Submitted via: ExactAudioCopy v0.99pb3
#
DISCID=2a0ee514
DTITLE=Dolly Parton - Ultimate Dolly Parton
DYEAR=2003
DGENRE=Country
TTITLE0=Joshua
TTITLE1=Coat Of Many Colors
TTITLE2=Jolene
TTITLE3=I Will Always Love You
TTITLE4=Please Don't Stop Loving Me (w/ Porter Wagoner)
TTITLE5=Love Is Like A Butterfly
TTITLE6=The Bargain Store
TTITLE7=Here You Come Again
TTITLE8=It's All Wrong, But It's All Right
TTITLE9=Heartbreaker
TTITLE10=I Really Got The Feeling
TTITLE11=You're The Only One
TTITLE12=Starting Over Again
TTITLE13=Old Flames Can't Hold A Candle To You
TTITLE14=9 To 5
TTITLE15=But You Know I Love You
TTITLE16=Tennessee Homesick Blues
TTITLE17=Islands In The Stream (w/ Kenny Rogers)
TTITLE18=To Know Him Is To Love Him (w/ Linda Ronstadt and Emmylou Harri
TTITLE18=s)
TTITLE19=Why'd You Come In Here Lookin' Like That
EXTD=
EXTT0=
EXTT1=
EXTT2=
EXTT3=
EXTT4=
EXTT5=
EXTT6=
EXTT7=
EXTT8=
EXTT9=
EXTT10=
EXTT11=
EXTT12=
EXTT13=
EXTT14=
EXTT15=
EXTT16=
EXTT17=
EXTT18=
EXTT19=
PLAYORDER=
